<svg width="195" height="34" viewBox="0 0 195 34" fill="none" xmlns="http://www.w3.org/2000/svg">
<path fill-rule="evenodd" clip-rule="evenodd" d="M24.241 1.2885C24.725 1.2885 25.1714 1.32783 25.5685 1.40544C25.9696 1.48478 26.3315 1.63826 26.6382 1.87456C26.9485 2.10529 27.1856 2.42442 27.3456 2.82741C27.5057 3.22937 27.5827 3.74269 27.5827 4.36667V26.3701H26.1715C25.6976 26.3701 25.2481 26.3325 24.8404 26.2566C24.4433 26.1759 24.0841 26.0203 23.7777 25.7875C23.4675 25.5519 23.2304 25.2363 23.0735 24.8329C22.9099 24.4296 22.8301 23.9176 22.8301 23.2923V1.2885H24.241ZM46.3012 10.6371C47.1338 11.4939 47.7857 12.485 48.2524 13.6157C48.7263 14.7447 48.9669 15.9735 48.9669 17.297C48.9669 18.5951 48.7505 19.8086 48.3221 20.9375C47.8863 22.0665 47.2872 23.0597 46.5031 23.9176C45.7264 24.7723 44.7714 25.4481 43.6426 25.9412C42.5138 26.4358 41.2629 26.6804 39.8935 26.6804C38.6251 26.6804 37.4506 26.4358 36.3534 25.9412C35.2696 25.4481 34.3149 24.7723 33.4753 23.9176C32.6462 23.0597 31.9909 22.0665 31.5202 20.9375C31.0499 19.8086 30.8132 18.5951 30.8132 17.297C30.8132 15.9735 31.0327 14.7447 31.4611 13.6157C31.8931 12.485 32.4963 11.4939 33.273 10.6371C34.0571 9.80671 35.0083 9.13574 36.1374 8.62939C37.2662 8.12581 38.5171 7.87072 39.8935 7.87072C41.1546 7.87072 42.3358 8.12581 43.4372 8.62939C44.5449 9.13574 45.4999 9.80671 46.3012 10.6371ZM39.3624 23.2923C39.7141 23.3198 40.1289 23.2732 40.6167 23.1597C41.0941 23.0407 41.5749 22.7804 42.0488 22.3771C42.5159 21.9737 42.9338 21.3929 43.2961 20.6273C43.6588 19.8602 43.9061 18.8538 44.0383 17.6076C44.1502 16.3596 44.0872 15.3291 43.8607 14.5103C43.631 13.6914 43.3204 13.0521 42.9338 12.585C42.5469 12.1177 42.1184 11.7853 41.6618 11.5887C41.2056 11.3973 40.8049 11.287 40.4528 11.2595C40.1046 11.232 39.6793 11.2786 39.1847 11.3973C38.6863 11.5132 38.2054 11.7662 37.7488 12.1542C37.2926 12.5436 36.8744 13.121 36.5015 13.888C36.1184 14.655 35.8848 15.6583 35.7769 16.906C35.6376 18.1522 35.6865 19.1847 35.9162 20.0033C36.1427 20.8225 36.4526 21.4719 36.8466 21.9511C37.2335 22.4282 37.6619 22.7682 38.1358 22.9645C38.6029 23.1597 39.0103 23.2676 39.3624 23.2923ZM60.8653 7.8708C61.9104 7.7932 62.9801 7.91744 64.0674 8.24318C65.1582 8.56544 66.1337 9.11181 66.9906 9.87709C67.8513 10.6424 68.5587 11.644 69.1127 12.878C69.6601 14.1086 69.9352 15.5841 69.9352 17.2971C69.9352 19.0089 69.6703 20.4636 69.1511 21.658C68.6249 22.8545 67.9389 23.8195 67.0915 24.559C66.2483 25.2999 65.2768 25.8345 64.1895 26.1759C63.0987 26.5135 61.9906 26.6805 60.8653 26.6805C59.7362 26.6805 58.6211 26.5135 57.5338 26.1759C56.4504 25.8345 55.4749 25.2999 54.6283 24.559C53.7886 23.8195 53.0949 22.8545 52.5761 21.658C52.0498 20.4636 51.785 19.0089 51.785 17.2971V1.2885H53.2377C53.7186 1.2885 54.1646 1.32783 54.5727 1.40544C54.9733 1.48478 55.3251 1.63826 55.6178 1.87456C55.9139 2.10529 56.144 2.42442 56.3005 2.82741C56.468 3.22937 56.5482 3.74269 56.5482 4.36667V9.77861C56.8721 9.49115 57.2552 9.20647 57.7153 8.92076C58.0917 8.71543 58.5444 8.50001 59.0636 8.27763C59.5899 8.05734 60.1893 7.92266 60.8653 7.8708ZM65.014 17.4904C65.0664 16.3994 65.0038 15.4736 64.8121 14.7066C64.6271 13.94 64.3485 13.3076 63.9862 12.8176C63.6203 12.3234 63.1919 11.9559 62.6934 11.7075C62.1954 11.4611 61.7004 11.3233 61.1847 11.2992C60.6726 11.27 60.1636 11.356 59.6518 11.5509C59.1428 11.744 58.676 12.0697 58.2581 12.5267C57.8434 12.9798 57.4948 13.5763 57.2091 14.3175C56.9267 15.0585 56.7596 15.9737 56.704 17.063C56.6516 18.1523 56.7248 19.0867 56.9267 19.8656C57.1254 20.643 57.4146 21.2841 57.7737 21.7772C58.1395 22.2682 58.5609 22.6323 59.0453 22.8665C59.5297 23.101 60.0281 23.2301 60.5364 23.2576C61.049 23.2803 61.5541 23.2026 62.0733 23.0213C62.5749 22.839 63.0456 22.5219 63.4635 22.0667C63.8785 21.6115 64.2264 21.0119 64.5089 20.2567C64.7945 19.5054 64.9584 18.5835 65.014 17.4904ZM80.8269 7.87072C81.5269 7.87072 82.3285 7.90169 83.2449 7.96747C84.1577 8.03463 85.0149 8.29147 85.8229 8.74667C86.6351 9.20152 87.3179 9.94069 87.8825 10.9666C88.4436 11.9919 88.7292 13.4657 88.7292 15.3874V26.37H87.3179C86.5901 26.37 85.9591 26.2666 85.4223 26.0603C84.8827 25.8535 84.4957 25.4481 84.2516 24.852C83.9312 25.2156 83.4225 25.5985 82.7222 26.0018C82.0218 26.4013 81.0636 26.6289 79.8546 26.6804C78.8651 26.7065 77.8893 26.6032 76.9519 26.37C76.0109 26.1393 75.1818 25.762 74.4572 25.2414C73.7216 24.7225 73.1542 24.0675 72.736 23.273C72.3244 22.4837 72.1299 21.5406 72.1507 20.4531C72.2062 18.166 73.3006 16.6267 75.4365 15.8357C77.579 15.0429 80.5307 14.934 84.2903 15.503C84.4257 14.6998 84.4015 13.9602 84.2101 13.2847C84.0532 12.7144 83.7046 12.1934 83.1823 11.7263C82.6592 11.2593 81.8058 11.0251 80.6207 11.0251C79.4958 11.0251 78.5095 11.1093 77.6561 11.2785C76.809 11.4472 76.1052 11.537 75.5406 11.5506C74.9764 11.5645 74.5444 11.4079 74.2517 11.0836C73.9591 10.7596 73.8057 10.0907 73.8057 9.07728C74.3981 8.8723 75.0566 8.67567 75.7812 8.4947C76.3978 8.33775 77.1436 8.19646 78.0012 8.06561C78.8651 7.93475 79.7987 7.87072 80.8269 7.87072ZM79.9386 23.2574C80.5032 23.2574 81.0505 23.1815 81.5901 23.0406C82.1304 22.8989 82.6042 22.6438 83.0225 22.2815C83.4404 21.9161 83.7647 21.4146 83.9948 20.7823C84.2178 20.1447 84.3152 19.3346 84.2909 18.3469C83.9146 18.2436 83.4963 18.152 83.0436 18.0744C82.6633 18.0229 82.2106 17.9711 81.6742 17.9196C81.1339 17.866 80.5591 17.8555 79.9386 17.8781C79.559 17.9074 79.1756 17.9641 78.7855 18.0539C78.3986 18.1454 78.0363 18.302 77.6982 18.5227C77.364 18.745 77.0921 19.0189 76.8726 19.3603C76.6602 19.6982 76.5518 20.1256 76.5518 20.6427C76.5518 21.1616 76.6387 21.5925 76.8097 21.9318C76.9877 22.268 77.2314 22.5318 77.5311 22.728C77.8481 22.925 78.2107 23.0597 78.6283 23.1383C79.0465 23.2146 79.4824 23.2574 79.9386 23.2574ZM93.7728 1.2885C94.2603 1.2885 94.6961 1.32783 95.1035 1.40544C95.5076 1.48478 95.8629 1.63826 96.1732 1.87456C96.4799 2.10529 96.717 2.42442 96.8771 2.82741C97.041 3.22937 97.1212 3.74269 97.1212 4.36667V26.3701H95.7099C95.222 26.3701 94.783 26.3325 94.3824 26.2566C93.9743 26.1759 93.619 26.0203 93.3091 25.7875C92.9989 25.5519 92.7657 25.2363 92.6017 24.8329C92.4382 24.4296 92.358 23.9176 92.358 23.2923V1.2885H93.7728ZM132.647 23.2923C132.814 23.8919 132.853 24.3899 132.772 24.7936C132.692 25.1966 132.525 25.5137 132.264 25.7465C132.013 25.9811 131.688 26.145 131.299 26.2344C130.912 26.3252 130.476 26.3701 129.985 26.3701H127.967C127.758 25.2781 127.528 24.2226 127.287 23.1952C127.044 22.17 126.803 21.1788 126.56 20.2173H115.469C115.229 21.1788 114.985 22.17 114.748 23.1952C114.504 24.2226 114.274 25.2781 114.058 26.3701H112.04C111.559 26.3701 111.121 26.3252 110.73 26.2344C110.336 26.145 110.02 25.9811 109.761 25.7465C109.507 25.5137 109.343 25.1966 109.263 24.7936C109.176 24.3899 109.218 23.8919 109.382 23.2923C109.974 20.9582 110.622 18.7626 111.336 16.7111C112.047 14.6602 112.758 12.79 113.472 11.1042C114.187 9.41533 114.866 7.92271 115.511 6.62636C116.155 5.32689 116.709 4.24805 117.159 3.39124C117.567 2.64163 118.128 2.10534 118.856 1.79526C119.584 1.48483 120.298 1.28855 120.996 1.21269C121.828 1.10898 122.703 1.13508 123.615 1.28855C124.689 3.08082 125.769 5.10242 126.849 7.36728C127.758 9.31371 128.737 11.6214 129.786 14.2962C130.835 16.9731 131.793 19.9709 132.647 23.2923ZM125.592 16.984C125.028 15.1913 124.48 13.5623 123.941 12.0937C123.4 10.632 122.919 9.37571 122.491 8.33794C121.999 7.1192 121.522 6.04245 121.035 5.10247C120.582 6.04245 120.094 7.1192 119.585 8.33794C119.132 9.37571 118.623 10.632 118.069 12.0937C117.519 13.5623 116.975 15.1913 116.439 16.984H125.592ZM144.225 7.87092C145.862 7.74354 147.274 7.92973 148.455 8.4347C149.64 8.94105 150.608 9.64787 151.368 10.5583C152.117 11.4666 152.657 12.5144 152.995 13.6914C153.333 14.8757 153.486 16.0753 153.462 17.2972C153.437 18.5953 153.214 19.8088 152.797 20.9377C152.381 22.0667 151.769 23.0599 150.956 23.9178C150.155 24.7725 149.183 25.4483 148.061 25.9414C146.928 26.436 145.649 26.6806 144.225 26.6806C143.66 26.6806 143.155 26.6239 142.716 26.5066C142.267 26.3893 141.887 26.262 141.566 26.1193C141.238 25.9759 140.981 25.8242 140.775 25.671C140.573 25.5137 140.437 25.3968 140.354 25.3175V33.2633H138.942C138.451 33.2633 138.012 33.2239 137.611 33.1481C137.211 33.0701 136.855 32.9118 136.542 32.6803C136.232 32.4461 135.995 32.1274 135.835 31.724C135.674 31.3228 135.59 30.8108 135.59 30.1882V8.30176H137.009C137.706 8.30176 138.316 8.39154 138.841 8.57251C139.368 8.75174 139.758 9.11715 140.036 9.66318C140.406 9.35171 140.953 9.00161 141.66 8.61044C142.375 8.22067 143.235 7.97428 144.225 7.87092ZM139.987 16.906C139.879 18.1798 139.952 19.2179 140.19 20.0225C140.437 20.8274 140.761 21.472 141.182 21.9512C141.597 22.4283 142.04 22.7683 142.51 22.9646C142.977 23.1598 143.402 23.2677 143.778 23.2924C144.154 23.3199 144.604 23.2733 145.109 23.1598C145.625 23.0408 146.123 22.7871 146.601 22.3991C147.085 22.0079 147.524 21.4361 147.911 20.6844C148.304 19.931 148.555 18.9315 148.66 17.6852C148.775 16.4119 148.716 15.3619 148.496 14.5309C148.28 13.6984 147.977 13.0522 147.569 12.5851C147.169 12.1177 146.726 11.7854 146.238 11.5888C145.757 11.3974 145.319 11.287 144.911 11.2595C144.528 11.2321 144.092 11.27 143.576 11.3768C143.071 11.4802 142.562 11.7321 142.064 12.1351C141.573 12.5367 141.123 13.1141 140.74 13.8675C140.346 14.6206 140.095 15.6341 139.987 16.906ZM165.361 7.87092C166.995 7.74354 168.406 7.92973 169.591 8.4347C170.772 8.94105 171.744 9.64787 172.5 10.5583C173.242 11.4666 173.793 12.5144 174.131 13.6914C174.465 14.8757 174.622 16.0753 174.598 17.2972C174.566 18.5953 174.347 19.8088 173.929 20.9377C173.514 22.0667 172.897 23.0599 172.092 23.9178C171.281 24.7725 170.316 25.4483 169.19 25.9414C168.061 26.436 166.786 26.6806 165.361 26.6806C164.793 26.6806 164.291 26.6239 163.845 26.5066C163.402 26.3893 163.019 26.262 162.698 26.1193C162.374 25.9759 162.106 25.8242 161.908 25.671C161.705 25.5137 161.566 25.3968 161.486 25.3175V33.2633H160.071C159.591 33.2633 159.148 33.2239 158.743 33.1481C158.343 33.0701 157.988 32.9118 157.674 32.6803C157.364 32.4461 157.131 32.1274 156.967 31.724C156.81 31.3228 156.73 30.8108 156.73 30.1882V8.30176H158.141C158.834 8.30176 159.448 8.39154 159.97 8.57251C160.496 8.75174 160.89 9.11715 161.166 9.66318C161.542 9.35171 162.086 9.00161 162.796 8.61044C163.511 8.22067 164.361 7.97428 165.361 7.87092ZM161.124 16.906C161.019 18.1798 161.082 19.2179 161.326 20.0225C161.566 20.8274 161.894 21.472 162.315 21.9512C162.73 22.4283 163.173 22.7683 163.643 22.9646C164.117 23.1598 164.539 23.2677 164.911 23.2924C165.288 23.3199 165.733 23.2733 166.242 23.1598C166.755 23.0408 167.256 22.7871 167.737 22.3991C168.221 22.0079 168.657 21.4361 169.047 20.6844C169.434 19.931 169.688 18.9315 169.793 17.6852C169.905 16.4119 169.849 15.3619 169.626 14.5309C169.413 13.6984 169.11 13.0522 168.703 12.5851C168.298 12.1177 167.859 11.7854 167.375 11.5888C166.89 11.3974 166.448 11.287 166.04 11.2595C165.664 11.2321 165.225 11.27 164.709 11.3768C164.204 11.4802 163.702 11.7321 163.2 12.1351C162.702 12.5367 162.26 13.1141 161.869 13.8675C161.479 14.6206 161.232 15.6341 161.124 16.906ZM194.077 21.3837C193.938 22.5801 193.527 23.5417 192.844 24.2659C192.157 24.995 191.338 25.5462 190.383 25.9221C189.432 26.2959 188.415 26.5322 187.338 26.6237C186.268 26.7152 185.289 26.7222 184.436 26.6425C183.411 26.5652 182.481 26.4239 181.652 26.2151C180.819 26.0063 180.094 25.7999 179.474 25.5911C178.777 25.3308 178.14 25.0691 177.575 24.8123C177.686 23.8264 177.903 23.1815 178.227 22.8836C178.551 22.5854 178.99 22.4629 179.554 22.5147C180.122 22.568 180.819 22.7218 181.652 22.9835C182.481 23.24 183.453 23.423 184.554 23.5264C186.147 23.6816 187.419 23.5417 188.37 23.1008C189.325 22.6557 189.788 22.0491 189.76 21.2681C189.736 20.7757 189.401 20.372 188.771 20.0598C188.14 19.7501 187.352 19.4567 186.408 19.1846C185.467 18.9138 184.464 18.6278 183.408 18.3278C182.345 18.0299 181.363 17.654 180.46 17.1988C179.561 16.744 178.83 16.1663 178.262 15.4668C177.701 14.7652 177.456 13.8812 177.537 12.8174C177.62 11.6212 178.011 10.682 178.708 9.99429C179.408 9.30661 180.244 8.79956 181.213 8.47208C182.178 8.14808 183.199 7.96746 184.275 7.92953C185.352 7.8916 186.314 7.90865 187.182 7.98765C188.202 8.08962 189.122 8.24309 189.941 8.4345C190.757 8.62938 191.484 8.83088 192.098 9.03934C192.799 9.29617 193.439 9.55788 194.032 9.81854C193.924 10.8045 193.715 11.4472 193.387 11.7437C193.07 12.0437 192.621 12.1694 192.056 12.1175C191.496 12.0643 190.798 11.9077 189.962 11.6505C189.129 11.3905 188.157 11.2075 187.063 11.1041C185.467 10.9458 184.167 11.0199 183.168 11.3181C182.161 11.6146 181.707 12.1419 181.816 12.8936C181.868 13.3074 182.216 13.6589 182.868 13.9446C183.506 14.231 184.311 14.5049 185.262 14.7652C186.213 15.0238 187.234 15.3084 188.307 15.6234C189.387 15.9321 190.363 16.3354 191.251 16.8282C192.14 17.3213 192.854 17.9331 193.405 18.6591C193.962 19.3878 194.182 20.293 194.077 21.3837Z" fill="black"/>
<path fill-rule="evenodd" clip-rule="evenodd" d="M9.80173 0.304316C11.5127 0.169983 12.976 0.364522 14.2128 0.890368C15.4461 1.41935 16.4567 2.15539 17.2408 3.10303C18.0213 4.04962 18.5891 5.1389 18.938 6.36947C19.2898 7.60039 19.4499 8.85184 19.4221 10.1217C19.3943 11.4748 19.1607 12.7398 18.7287 13.9154C18.2968 15.091 17.6555 16.1288 16.8229 17.0179C15.9762 17.9127 14.9691 18.6125 13.7914 19.1297C12.6172 19.6433 11.2893 19.9016 9.80173 19.9016C9.21605 19.9016 8.69404 19.8379 8.21951 19.7175C7.76679 19.5967 7.36614 19.4603 7.02457 19.3103C6.69005 19.1624 6.41849 19.0054 6.20954 18.845C5.99321 18.6832 5.85391 18.5593 5.76351 18.4813V26.7546H4.29983C3.7947 26.7546 3.32791 26.717 2.90615 26.6342C2.4879 26.5531 2.12207 26.3892 1.7981 26.1484C1.47764 25.9051 1.23036 25.5724 1.0594 25.1534C0.891961 24.7348 0.808594 24.1985 0.808594 23.5505V0.752207H2.28248C3.01062 0.752207 3.64837 0.845474 4.19536 1.03514C4.74234 1.22481 5.15355 1.60205 5.43602 2.17279C5.82612 1.84845 6.39387 1.48164 7.1294 1.07621C7.87478 0.669728 8.7672 0.412895 9.80173 0.304316ZM5.38654 9.71688C5.27503 11.0425 5.3482 12.1248 5.599 12.9624C5.85333 13.8018 6.19489 14.4721 6.63389 14.9705C7.06585 15.4733 7.52947 15.8238 8.01701 16.027C8.50491 16.2285 8.94777 16.3423 9.33753 16.3681C9.7315 16.3959 10.1913 16.351 10.7245 16.2285C11.2578 16.1043 11.7766 15.8408 12.2751 15.4375C12.7837 15.0303 13.2438 14.4345 13.6445 13.6518C14.0483 12.8674 14.3135 11.8248 14.4212 10.527C14.533 9.20147 14.4771 8.10663 14.2545 7.24008C14.0279 6.37457 13.7039 5.70082 13.2857 5.2129C12.8639 4.72673 12.4077 4.38394 11.9022 4.18035C11.4006 3.97537 10.937 3.86157 10.5121 3.83408C10.1184 3.80798 9.66185 3.85113 9.12858 3.9531C8.59918 4.06342 8.06978 4.32861 7.55726 4.74796C7.03103 5.16453 6.57479 5.76972 6.1671 6.5524C5.75941 7.33682 5.50508 8.39304 5.38654 9.71688Z" fill="black"/>
</svg>
